<svg xmlns="http://www.w3.org/2000/svg" xmlns:xlink="http://www.w3.org/1999/xlink" version="1.1" x="0px" y="0px" viewBox="0 0 100 125" style="enable-background:new 0 0 100 100;" xml:space="preserve"><style type="text/css">
	.st0{fill:none;stroke:#000000;stroke-width:2;stroke-linecap:round;stroke-linejoin:round;stroke-miterlimit:10;}
	.st1{fill:none;stroke:#000000;stroke-width:2;stroke-miterlimit:10;}
</style><path d="M49.8,16.5C49.8,16.5,49.8,16.5,49.8,16.5c0.6,0,1-0.4,1-1l0.1-5.1c0-0.6-0.4-1-1-1c-0.6,0-1,0.4-1,1l-0.1,5.1  C48.8,16.1,49.3,16.5,49.8,16.5z"/><path d="M53.2,19.2c0.2,0,0.5-0.1,0.7-0.3l3.7-3.5c0.4-0.4,0.4-1,0-1.4c-0.4-0.4-1-0.4-1.4,0l-3.7,3.5c-0.4,0.4-0.4,1,0,1.4  C52.7,19.1,53,19.2,53.2,19.2z"/><path d="M45.8,18.9c0.2,0.2,0.4,0.3,0.7,0.3c0.3,0,0.5-0.1,0.7-0.3c0.4-0.4,0.4-1,0-1.4L43.5,14c-0.4-0.4-1-0.4-1.4,0  c-0.4,0.4-0.4,1,0,1.4L45.8,18.9z"/><path d="M61.7,59.2c2.8,3.6,5.8,5.6,8.5,5.6c0.1,0,0.3,0,0.4,0l5.5,22.6l-6.3,1.5c-0.5,0.1-0.9,0.7-0.7,1.2c0.1,0.5,0.5,0.8,1,0.8  c0.1,0,0.2,0,0.2,0l14.5-3.5c0.5-0.1,0.9-0.7,0.7-1.2c-0.1-0.5-0.7-0.9-1.2-0.7l-6.3,1.5l-5.5-22.6c2.6-1.2,4.5-4.3,5.4-9.1  c0.9-5,0.5-11.2-1-17.6c-1-3.9-3.8-13.4-5.5-17c-0.2-0.4-0.7-0.6-1.1-0.5l-18,4.4c-0.5,0.1-0.8,0.5-0.8,1c0.1,4,2,13.7,3,17.6  C56,49.4,58.6,55.2,61.7,59.2z M76,54.9c-0.8,4.4-2.5,7.2-4.8,7.8c-2.3,0.6-5.2-1.1-7.9-4.7c-2.9-3.8-5.4-9.3-6.8-15.3  c-0.4-1.8-1.1-4.8-1.7-7.9l18-4.3c0.9,3,1.7,5.9,2.1,7.6C76.4,44.2,76.8,50.1,76,54.9z M69.9,22.2c0.7,1.6,1.5,3.9,2.3,6.3  l-17.8,4.2c-0.4-2.5-0.8-4.8-0.9-6.5L69.9,22.2z"/><path d="M70.3,35.8c-0.5,0.1-0.9,0.7-0.7,1.2c2.2,8.8,1.8,16.3,0.9,18.5c-0.2,0.5,0,1.1,0.5,1.3c0.1,0.1,0.3,0.1,0.4,0.1  c0.4,0,0.8-0.2,0.9-0.6c1.1-2.6,1.5-10.4-0.8-19.8C71.4,36,70.8,35.7,70.3,35.8z"/><path d="M15.1,87.3l14.5,3.5c0.1,0,0.2,0,0.2,0c0.4,0,0.9-0.3,1-0.8c0.1-0.5-0.2-1.1-0.7-1.2l-6.3-1.5l5.5-22.6c0.1,0,0.3,0,0.4,0  c2.8,0,5.8-1.9,8.5-5.6c3.1-4,5.6-9.7,7.2-16.1c1-3.9,2.9-13.7,3-17.6c0-0.5-0.3-0.9-0.8-1l-18-4.4c-0.5-0.1-0.9,0.1-1.1,0.5  c-1.7,3.6-4.5,13.1-5.5,17c-1.6,6.3-1.9,12.6-1,17.6c0.8,4.7,2.7,7.9,5.4,9.1l-5.5,22.6l-6.3-1.5c-0.5-0.1-1.1,0.2-1.2,0.7  C14.3,86.6,14.6,87.1,15.1,87.3z M30.1,22.2l16.4,4c-0.1,1.7-0.5,4-0.9,6.5l-17.8-4.2C28.6,26.1,29.4,23.8,30.1,22.2z M24,54.9  c-0.8-4.7-0.5-10.7,1-16.8c0.4-1.8,1.2-4.7,2.1-7.6l18,4.3c-0.6,3.1-1.2,6.1-1.7,7.9c-1.5,6.1-3.9,11.5-6.8,15.3  c-2.7,3.5-5.6,5.2-7.9,4.7C26.6,62.1,24.8,59.2,24,54.9z"/><path d="M29.6,55.6c-0.9-2.3-1.3-9.7,0.9-18.5c0.1-0.5-0.2-1.1-0.7-1.2c-0.5-0.1-1.1,0.2-1.2,0.7c-2.3,9.4-1.8,17.2-0.8,19.8  c0.2,0.4,0.5,0.6,0.9,0.6c0.1,0,0.3,0,0.4-0.1C29.5,56.7,29.8,56.1,29.6,55.6z"/><text x="0" y="115" fill="#000000" font-size="5px" font-weight="bold" font-family="'Helvetica Neue', Helvetica, Arial-Unicode, Arial, Sans-serif"></text><text x="0" y="120" fill="#000000" font-size="5px" font-weight="bold" font-family="'Helvetica Neue', Helvetica, Arial-Unicode, Arial, Sans-serif"></text></svg>